PathFileType	4	(X/Y/Z)	C:\Users\Basilio\Documents\Thesis Gigler\squatting_fais\c3dfiles\077\SLS_front_pre5\markers_experimental.trc
DataRate	CameraRate	NumFrames	NumMarkers	Units	OrigDataRate	OrigDataStartFrame	OrigNumFrames
200.000000	200.000000	4	60	mm	200.000000	1375	1572
Frame#	Time	FHD			LBHD			RBHD			C7			T10			CLAV			LSHO			LUUPA			LMUPA			LDUPA			LLEP			LMEP			LRAD			LUL			LRFIN			RSHO			RUPA1			RMUPA			RDUPA			RLEP			RMEP			RRAD			RUL			RUFIN			LASI			RASI			USACR			LSACR			RSACR			LTHI1			LTHI2			LTHI3			LTHI4			LLFC			LMFC			LTIB1			LTIB2			LTIB3			LTIB4			LLMAL			LHEE			LMT1			LMT2			LMT5			RTHI			RTHI2			RTHI3			RTHI4			RLFC			RMFC			RTIB1			RTIB2			RTIB3			RTIB4			RLMAL			RMMAL			RHEE			RMT1			RMT2			RMT5			
		X1	Y1	Z1	X2	Y2	Z2	X3	Y3	Z3	X4	Y4	Z4	X5	Y5	Z5	X6	Y6	Z6	X7	Y7	Z7	X8	Y8	Z8	X9	Y9	Z9	X10	Y10	Z10	X11	Y11	Z11	X12	Y12	Z12	X13	Y13	Z13	X14	Y14	Z14	X15	Y15	Z15	X16	Y16	Z16	X17	Y17	Z17	X18	Y18	Z18	X19	Y19	Z19	X20	Y20	Z20	X21	Y21	Z21	X22	Y22	Z22	X23	Y23	Z23	X24	Y24	Z24	X25	Y25	Z25	X26	Y26	Z26	X27	Y27	Z27	X28	Y28	Z28	X29	Y29	Z29	X30	Y30	Z30	X31	Y31	Z31	X32	Y32	Z32	X33	Y33	Z33	X34	Y34	Z34	X35	Y35	Z35	X36	Y36	Z36	X37	Y37	Z37	X38	Y38	Z38	X39	Y39	Z39	X40	Y40	Z40	X41	Y41	Z41	X42	Y42	Z42	X43	Y43	Z43	X44	Y44	Z44	X45	Y45	Z45	X46	Y46	Z46	X47	Y47	Z47	X48	Y48	Z48	X49	Y49	Z49	X50	Y50	Z50	X51	Y51	Z51	X52	Y52	Z52	X53	Y53	Z53	X54	Y54	Z54	X55	Y55	Z55	X56	Y56	Z56	X57	Y57	Z57	X58	Y58	Z58	X59	Y59	Z59	X60	Y60	Z60	

1376	6.875	-140.8356628417969	1757.211547851563	-1018.097106933594	-316.5430603027344	1756.695678710938	-1089.63818359375	-324.5957336425782	1760.195434570313	-944.7126464843752	-449.313446044922	1639.259399414063	-1014.490844726563	-503.0732727050782	1287.197021484375	-991.9495239257815	-304.2805175781251	1550.689453125	-1022.349914550781	-382.5656433105469	1575.485473632813	-1213.722534179688	-423.3643798828126	1353.344848632813	-1299.558715820313	-378.4630126953126	1333.748291015625	-1301.331176757813	-417.1557922363282	1285.98583984375	-1305.76953125	-403.5449829101564	1219.218872070313	-1310.741943359375	-419.1624755859376	1197.485229492188	-1238.014404296875	-169.5540618896485	1011.257690429688	-1290.560424804688	-233.2124938964844	970.7336425781252	-1324.13623046875	-121.9860763549805	938.861267089844	-1330.357666015625	-337.7050476074219	1580.307495117188	-827.5889892578127	-362.9804077148438	1377.241577148438	-711.2987670898439	-320.0334472656251	1356.298217773438	-719.4323730468751	-354.0356445312501	1309.123657226563	-700.7666015625001	-339.9424438476563	1241.950439453125	-691.0769653320314	-370.5446166992188	1211.529296875	-761.8776245117189	-117.9915542602539	1041.182861328125	-733.0656738281251	-161.5156555175782	999.3030395507815	-683.2961425781251	-53.9466896057129	985.751403808594	-698.4874877929689	-324.8827209472657	1062.841186523438	-1121.068969726563	-308.4166870117188	1113.613403320313	-839.775573730469	-515.3320922851564	1173.095703125	-979.1214599609377	-523.7391967773439	1141.64306640625	-1005.669921875	-523.5723266601564	1142.333984375	-950.1729736328127	-398.484344482422	858.099792480469	-1160.470458984375	-376.4794006347657	778.1002197265627	-1154.171264648438	-326.8808593750001	777.0228271484377	-1150.165161132813	-407.792205810547	729.0056762695314	-1136.301635742188	-393.1494445800782	581.8597412109376	-1111.65478515625	-379.7922668457032	559.6245727539064	-977.3194580078127	-343.0927734375001	363.8822937011719	-1044.00830078125	-374.6296081542969	316.2550964355469	-1113.557495117188	-340.6003417968751	315.7940673828126	-1080.86181640625	-338.6662902832032	237.6199188232422	-1049.110717773438	-389.5532226562501	113.2882843017578	-1090.335571289063	-440.3846130371095	88.10942840576173	-1034.265991210938	-231.0405273437501	61.23906707763673	-1022.169921875	-227.4170379638672	60.93769836425783	-1064.784545898438	-355.8819885253907	129.5620727539063	-1008.071350097656	-329.1737365722657	778.9443969726565	-753.4833374023439	-281.1544799804688	731.9127197265626	-750.4329833984376	-248.4767456054688	738.3581542968751	-755.8967895507814	-294.6294250488282	649.9718627929689	-756.9446411132814	-290.9008789062501	587.5725097656251	-752.0598144531251	-261.0161132812501	562.2744750976564	-877.5692138671877	-272.7052001953126	444.7517700195314	-759.2279052734376	-352.5761413574219	383.8926086425782	-720.7156372070314	-312.7539367675782	368.4863891601563	-741.2886962890626	-319.6485595703126	323.8950500488282	-778.412780761719	-426.7405700683595	168.378158569336	-722.6447143554689	-397.2346191406251	162.3188781738282	-811.202575683594	-496.8511352539064	141.0756072998047	-778.736267089844	-281.5534057617188	75.88424682617189	-762.2675170898439	-286.4053039550782	79.31583404541017	-724.1103515625001	-310.5495910644532	64.11521148681642	-677.0498046875001	
1377	6.88	-141.2447052001953	1757.455200195313	-1018.096313476563	-316.8546142578126	1756.936889648438	-1089.726196289063	-325.0916442871094	1760.345825195313	-944.9522705078127	-449.6461486816407	1639.076538085938	-1014.687194824219	-503.2095947265626	1287.141845703125	-992.0687255859377	-304.5234375000001	1550.82421875	-1022.462219238281	-382.4779663085938	1575.618041992188	-1213.679931640625	-421.8777770996095	1353.48974609375	-1299.976684570313	-376.1660461425782	1334.620483398438	-1302.0810546875	-415.2119750976564	1286.411499023438	-1306.630004882813	-400.7386779785157	1219.625732421875	-1311.75732421875	-415.7662353515626	1197.366577148438	-1239.058227539063	-161.5662384033203	1018.117858886719	-1293.453369140625	-223.7277526855469	975.2976074218752	-1325.918212890625	-112.1332168579102	946.4199218750002	-1333.525024414063	-337.8872985839844	1580.71484375	-827.9529418945315	-361.3224792480469	1378.109008789063	-711.1210937500001	-318.5086669921876	1357.5068359375	-720.0186157226564	-351.9877319335938	1309.891845703125	-700.6853637695314	-337.4218750000001	1242.89892578125	-690.6994018554689	-368.4126586914063	1211.937377929688	-761.2344970703126	-110.323959350586	1048.488403320313	-734.9734497070314	-152.5868682861328	1005.194885253906	-685.8636474609376	-44.57560348510743	994.8367309570315	-701.0758666992189	-327.9829101562501	1062.811645507813	-1120.814697265625	-308.7868347167969	1113.744873046875	-839.8719482421877	-515.6336059570314	1173.083862304688	-979.3090820312502	-523.8011474609376	1141.7724609375	-1005.879516601563	-523.8630371093751	1142.350830078125	-950.3187255859377	-398.6253051757814	858.3330688476565	-1160.139770507813	-376.7716674804688	778.0862426757815	-1154.044189453125	-327.5003662109376	776.378356933594	-1150.316650390625	-408.3663024902345	729.1458129882814	-1136.170043945313	-393.9445800781251	581.8906860351564	-1111.578247070313	-380.7068176269532	559.4291992187501	-977.2078857421877	-343.4649658203126	364.0170288085938	-1043.946411132813	-375.5205993652344	315.7373046875001	-1112.90771484375	-341.0535278320313	315.1217956542969	-1079.780883789063	-339.2814331054688	238.0262451171876	-1049.275756835938	-389.6113281250001	113.2576522827149	-1090.28515625	-440.3922119140626	88.18677520751955	-1034.263671875	-230.9929809570313	61.28280639648439	-1022.189697265625	-227.1639404296876	60.98375701904298	-1064.712890625	-355.9224548339844	129.6925048828125	-1008.035888671875	-329.2296142578126	779.0290527343752	-753.6135864257814	-281.1301879882813	732.0863647460939	-750.5921630859376	-248.4454345703126	738.6725463867189	-755.8834228515626	-294.6188049316407	650.1465454101564	-757.0725097656251	-290.8785400390626	587.7635498046876	-752.2216796875001	-260.4842834472657	562.5383300781251	-877.6743774414065	-272.5038146972657	444.8946533203126	-759.4176025390626	-352.4350891113282	384.0301208496095	-720.9958496093751	-312.4995727539063	368.6253967285157	-741.5360107421876	-319.2999877929688	323.9391784667969	-778.6134033203127	-426.0578918457032	168.0736541748047	-723.1463623046876	-396.5526123046876	162.4221496582032	-811.7219238281252	-496.142791748047	140.6026306152344	-779.3361816406252	-280.4984130859376	76.46485900878908	-762.6179199218751	-285.2352905273438	80.03535461425783	-724.4225463867189	-309.4252929687501	64.39471435546876	-677.5346069335939	
1378	6.885	-141.6615600585938	1757.499389648438	-1018.12841796875	-317.1969299316407	1756.859252929688	-1089.87353515625	-325.5916442871094	1760.479125976563	-945.1777343750002	-450.0113830566407	1638.935424804688	-1014.934020996094	-503.4038696289064	1286.998779296875	-992.1944580078127	-304.8963928222657	1550.875732421875	-1022.642028808594	-382.5610046386719	1575.906127929688	-1213.785034179688	-420.287078857422	1353.837768554688	-1300.615112304688	-374.9440612792969	1335.084594726563	-1302.680786132813	-412.6174621582032	1286.358032226563	-1307.419677734375	-397.609100341797	1219.987670898438	-1312.76806640625	-412.0780029296876	1197.499389648438	-1239.964965820313	-153.1426849365235	1024.852294921875	-1295.869018554688	-214.8377380371094	980.3118896484377	-1327.529663085938	-101.6360778808594	954.8883056640627	-1336.3701171875	-338.0649414062501	1581.08447265625	-828.3044433593752	-359.8766784667969	1379.126708984375	-710.9339599609376	-317.0137023925782	1358.352783203125	-720.3184814453126	-349.8778991699219	1310.931518554688	-700.3463134765626	-334.8191528320313	1243.979370117188	-690.2675170898439	-366.2878112792969	1212.357421875	-760.3512573242189	-103.0355758666992	1056.015625	-737.1693115234376	-143.8594360351563	1010.870727539063	-688.2633056640626	-35.70331192016602	1003.541687011719	-703.7036132812501	-328.1524658203126	1062.93310546875	-1120.800659179688	-309.2300109863282	1113.79443359375	-840.0005493164065	-515.8629150390626	1173.034423828125	-979.508728027344	-523.9788818359376	1141.728515625	-1006.049377441406	-524.0476684570314	1142.42529296875	-950.4290771484377	-398.707489013672	858.4847412109377	-1159.754028320313	-377.1611328125001	777.8914794921877	-1153.889770507813	-327.9032897949219	776.2332153320315	-1150.088500976563	-408.9414367675782	729.1784667968751	-1136.115356445313	-394.3360595703126	581.7719726562501	-1111.404907226563	-381.5739440917969	559.5104370117189	-977.123718261719	-344.9254455566407	363.8213806152344	-1044.063354492188	-375.8575744628907	315.7262878417969	-1112.893188476563	-341.3435668945313	315.2799682617188	-1079.832641601563	-339.5269165039063	238.1368560791016	-1049.229370117188	-390.3489074707032	113.6034164428711	-1090.264282226563	-440.3641357421876	88.16796875000001	-1034.297241210938	-231.0459899902344	61.21894836425783	-1022.215087890625	-227.3621826171876	61.11745071411134	-1064.783325195313	-355.9514160156251	129.6794128417969	-1008.019226074219	-329.2587280273438	779.137390136719	-753.6632690429689	-281.2204895019532	732.1214599609376	-750.6901245117189	-248.5134582519532	738.8612060546876	-755.9783325195314	-294.6300659179688	650.2670288085939	-757.2038574218751	-290.9547119140626	587.8863525390626	-752.4050292968751	-260.4391174316407	562.7109985351564	-877.8206787109377	-272.2786560058594	445.1185302734376	-759.5292358398439	-352.2820739746094	383.9578857421876	-721.3346557617189	-312.2184448242188	368.6008605957032	-741.7868652343751	-318.7890319824219	324.0598144531251	-778.905212402344	-425.3666076660157	167.7049102783203	-723.7089233398439	-395.9707336425782	162.3174285888672	-812.240661621094	-495.2883300781251	139.9863433837891	-779.9020996093752	-279.8564147949219	77.19216918945314	-763.3771972656251	-284.0392456054688	80.68796539306642	-724.7973632812501	-308.5587768554688	64.60317230224611	-678.1212768554689	
1379	6.890000000000001	-142.0286712646485	1757.77099609375	-1018.147827148438	-317.4515686035157	1757.102661132813	-1090.0107421875	-325.9575500488282	1760.485961914063	-945.2661132812502	-450.3602294921876	1638.818725585938	-1015.1982421875	-503.5976562500001	1286.953857421875	-992.2632446289065	-305.1311340332032	1551.000366210938	-1022.739990234375	-382.4963989257813	1576.212158203125	-1213.755493164063	-419.2945861816407	1353.794799804688	-1301.218872070313	-373.3802185058594	1336.2197265625	-1303.785888671875	-410.2652587890626	1286.844604492188	-1308.15087890625	-394.8672790527345	1220.4697265625	-1313.751586914063	-408.5430908203126	1197.55712890625	-1241.011108398438	-145.1331939697266	1031.592041015625	-1298.261474609375	-205.8468017578126	985.4531250000002	-1329.181884765625	-92.45456695556642	963.5383911132815	-1338.98876953125	-338.1928405761719	1581.454711914063	-828.6671142578127	-358.3600769042969	1379.954345703125	-710.6345214843751	-315.3792419433594	1359.51904296875	-720.6666259765626	-347.9118041992188	1311.892211914063	-700.1269531250001	-332.3322448730469	1245.08056640625	-689.8101196289064	-364.5866699218751	1212.660888671875	-759.4733276367189	-96.15673828125003	1063.512817382813	-739.2078247070314	-135.3984985351563	1016.929382324219	-690.7461547851564	-27.21101951599122	1012.699523925781	-706.4318847656251	-328.2922363281251	1062.859008789063	-1120.796997070313	-309.6604309082032	1113.755737304688	-840.0787353515627	-516.0794677734376	1173.131103515625	-979.6729125976565	-524.1221923828126	1141.727661132813	-1006.167663574219	-524.3447875976564	1142.416015625	-950.577575683594	-398.9289550781251	858.0454101562502	-1159.646606445313	-377.5034484863282	777.8176879882815	-1153.70263671875	-328.3104858398438	776.144714355469	-1149.899047851563	-409.3227539062501	729.1190185546876	-1136.027221679688	-394.800994873047	581.5857543945314	-1111.251831054688	-382.2922363281251	559.4465332031251	-976.9444580078127	-345.6131286621094	363.5387878417969	-1044.10400390625	-376.7510986328126	316.5187072753907	-1112.887329101563	-341.7240295410157	315.3463439941407	-1079.88232421875	-339.7483215332032	238.2981109619141	-1049.224243164063	-389.6863708496095	113.3190002441407	-1090.1982421875	-440.2235107421876	88.23082733154298	-1034.342651367188	-231.0296020507813	61.20484161376955	-1022.185424804688	-227.2032012939454	61.06559371948244	-1064.804809570313	-356.0403747558594	129.7193145751953	-1008.044372558594	-329.3832092285157	779.214050292969	-753.6760253906251	-281.3396301269532	732.1697998046876	-750.7891235351564	-248.6098022460938	738.9058227539064	-756.1166381835939	-294.7027893066407	650.3541259765626	-757.3093261718751	-291.1780395507813	587.9501953125001	-752.5407714843751	-260.2853088378907	562.6533813476564	-877.881286621094	-272.3008117675782	445.0249328613282	-759.7589111328126	-352.1146240234376	383.7659301757813	-721.7239990234376	-311.9808654785157	368.6280212402344	-742.0568847656251	-318.4026184082032	324.2012939453126	-779.200866699219	-424.6019287109376	167.4093627929688	-724.2576293945314	-395.2525329589845	161.9677734375	-812.8582153320315	-494.4148559570314	139.1400604248047	-780.4638671875002	-278.6806030273438	77.63335418701173	-763.8785400390626	-283.0147705078126	80.97554779052736	-725.4296875000001	-307.2396850585938	65.03690338134767	-678.5831909179689	
